<svg viewBox="0 0 198.42519685 171.118445523" width="198.42519685pt" height="171.118445523pt" xmlns="http://www.w3.org/2000/svg" xmlns:xlink="http://www.w3.org/1999/xlink" xmlns:h5="http://www.w3.org/1999/xhtml"><g transform="translate(70.866141732 70.866141732)"><path fill="none" stroke="#0074d9" stroke-width="1.5" stroke-linecap="butt" stroke-linejoin="miter" stroke-miterlimit="4" transform="translate(0 28.346456693)" d="M 0 0m 0 0h 56.692913386"/><path fill="none" stroke="#0074d9" stroke-width="1.5" stroke-linecap="butt" stroke-linejoin="miter" stroke-miterlimit="4" d="M 0 0m 0 28.346456693l 49.097503207 -28.346456693"/><path fill="none" stroke="#28383b" stroke-width="1.5" stroke-linecap="butt" stroke-linejoin="miter" stroke-miterlimit="4" transform="translate(36.823127405 7.086614173)" d="M 0 0m 5.696557634 21.25984252c 0 -7.463763643 -1.964675813 -14.796033597 -5.696557634 -21.25984252"/><path fill="none" transform="translate(22.48566356 11.16622505)" d="M 0 0m 0 0h 15.265937008v 18.219937008h -15.265937008v -18.219937008Z "/><g transform="translate(22.485663465 11.166225035)"><g transform="matrix(1 0 0 -1 4.251968504 13.813968504)"><use xlink:href="#gCC3079E72C3D0C5A1EDCDE9A86BCC69E" x="0" y="0" fill="#000000" fill-rule="nonzero"/></g></g></g><defs><symbol id="gCC3079E72C3D0C5A1EDCDE9A86BCC69E" overflow="visible"><path d="M 0 0m 2.296 -0.154c 0.63 0 1.288 0.378 1.932 1.134c 1.12 1.302 2.142 3.71 2.142 5.992c 0 0.574 -0.098 1.176 -0.294 1.778c -0.252 0.742 -0.728 1.12 -1.414 1.12c -0.63 0 -1.26 -0.378 -1.918 -1.134c -1.12 -1.288 -2.156 -3.696 -2.156 -5.992c 0 -1.428 0.462 -2.898 1.708 -2.898Z m 2.352 9.604c 0.462 0 0.7 -0.532 0.7 -1.61c 0 -0.602 -0.14 -1.512 -0.42 -2.702h -2.758c 0.35 1.302 0.686 2.268 1.036 2.898c 0.518 0.938 1.008 1.414 1.442 1.414Z m -2.618 -4.872h 2.744c -0.266 -1.134 -0.588 -2.044 -0.938 -2.73c -0.546 -1.05 -1.05 -1.582 -1.54 -1.582c -0.462 0 -0.686 0.546 -0.686 1.624c 0 0.7 0.14 1.596 0.42 2.688Z "/></symbol></defs></svg>